<?xml version="1.0" encoding="UTF-8"?>
<svg width="32" height="32" viewBox="0 0 32 32" version="1.1" xmlns="http://www.w3.org/2000/svg" xmlns:xlink="http://www.w3.org/1999/xlink">
    <!-- Generator: Sketch 52 (66869) - http://www.bohemiancoding.com/sketch -->
    <title>white</title>
    <desc>Created with Sketch.</desc>
    <g id="Symbols" stroke="none" stroke-width="1" fill="none" fill-rule="evenodd">
        <g id="Coin-Icon---USDC" transform="translate(-2.000000, -2.000000)" fill="#FFFFFF" fill-rule="nonzero">
            <g id="Icon" transform="translate(-1.000000, -1.000000)">
                <g id="white" transform="translate(3.000000, 3.000000)">
                    <path d="M16,32 C7.163444,32 0,24.836556 0,16 C0,7.163444 7.163444,0 16,0 C24.836556,0 32,7.163444 32,16 C32,24.836556 24.836556,32 16,32 Z M15.04,10.0591961 C13.0427289,10.3689941 11.6996354,11.6484033 11.6996354,13.4277083 C11.6996354,15.08 12.7102604,16.1066667 14.8438021,16.5959375 L16.3436979,16.9488542 C17.8034896,17.29375 18.3970312,17.775 18.3970312,18.6091667 C18.3970312,19.5716667 17.4265104,20.2614583 16.0308854,20.2614583 C14.8679046,20.2614583 13.9390062,19.7878498 13.5760635,19.0245085 C13.4228327,18.7022335 13.0978333,18.4968945 12.7409849,18.4968945 L11.9525731,18.496875 L11.9525731,18.4968399 C11.9218183,18.4968399 11.8911357,18.4998171 11.8609546,18.5057299 C11.6026767,18.5563294 11.4343201,18.806724 11.4849196,19.0650019 C11.7924359,20.6346745 13.1015956,21.6606715 15.04,21.8947271 L15.04,23.0333333 C15.04,23.5635267 15.4698066,23.9933333 16,23.9933333 C16.5301934,23.9933333 16.96,23.5635267 16.96,23.0333333 L16.96,21.8766004 C19.1483601,21.5718383 20.4824479,20.2794558 20.4824479,18.3685417 C20.4824479,16.6440625 19.4878646,15.6735417 17.1377604,15.1361458 L15.8063021,14.8313542 C14.3866146,14.4944792 13.8010937,14.0453125 13.8010937,13.2753125 C13.8010937,12.3128125 14.6833854,11.6711458 15.9907812,11.6711458 C17.0362191,11.6711458 17.8213939,12.0765555 18.1525745,12.7806248 C18.3314477,13.1608983 18.7138769,13.4036356 19.1341192,13.4036356 L19.6534484,13.4036144 C19.6954478,13.4036144 19.7373169,13.3989443 19.778284,13.3896901 C20.0834941,13.3207453 20.275025,13.0174328 20.2060802,12.7122227 C19.8881894,11.3049593 18.6971799,10.3172928 16.96,10.0557372 L16.96,9.06 C16.96,8.52980664 16.5301934,8.1 16,8.1 C15.4698066,8.1 15.04,8.52980664 15.04,9.06 L15.04,10.0591961 Z M4,16.0002395 C4,21.2770246 7.43243241,25.7552253 12.1945447,27.3402283 C12.2568838,27.360977 12.3221567,27.3715544 12.3878581,27.3715544 C12.7259296,27.3715544 12.9999907,27.0974933 12.9999907,26.7594218 L12.9999718,26.4773956 C12.9999718,25.9582006 12.6851989,25.4908415 12.2040763,25.2956893 C8.52325228,23.8026794 5.92857143,20.2032967 5.92857143,16.0002395 C5.92857143,11.7951546 8.5257565,8.19432673 12.2094045,6.70263021 C12.6872556,6.50912397 12.9999715,6.04510602 12.9999715,5.52956129 L12.9999625,5.19135233 C12.9999625,5.13035418 12.9902768,5.06974292 12.971267,5.01178255 C12.8720934,4.70940372 12.5465708,4.54467338 12.244192,4.64384703 C7.45630719,6.21416865 4,10.7051346 4,16.0002395 Z M28,16.0002395 C28,10.7386541 24.5873131,6.27105907 19.8465735,4.67401936 C19.7805626,4.65178189 19.7113713,4.64044059 19.6417154,4.6404406 C19.2873195,4.6404406 19.0000249,4.92773523 19.0000249,5.28213111 L19.0000055,5.48817076 C19.0000055,6.02701158 19.325813,6.51236531 19.824515,6.71643824 C23.4901769,8.2164571 26.0714286,11.8080733 26.0714286,16.0002395 C26.0714286,20.1963595 23.4853058,23.7907961 19.8141406,25.2882795 C19.3218181,25.4890999 19.0000115,25.9679152 19.0000115,26.4996202 L18.9999603,26.7256073 C18.9999603,26.7945606 19.0111648,26.8630557 19.0331357,26.9284149 C19.1451433,27.2616162 19.5060563,27.4409292 19.8392576,27.3289216 C24.5838018,25.7340154 28,21.2645311 28,16.0002395 Z" id="Combined-Shape"></path>
                </g>
            </g>
        </g>
    </g>
</svg>